<svg preserveAspectRatio="xMidYMid meet" data-bbox="43.5 62.5 113 75" viewBox="43.5 62.5 113 75" xmlns="http://www.w3.org/2000/svg" fill="#FFFFFF" role="presentation" aria-hidden="true">
<defs><style>#comp-kcefv8gz svg [data-color="1"] {fill: #FFFFFF;}</style></defs>
<g><path d="M100.001 62.5c-8.798 0-15.689 4.562-15.689 10.389 0 .038.008.075.008.114-.079.209-.135.43-.135.666v54.219c0 .411.159.771.382 1.082 1.291 4.907 7.599 8.53 15.434 8.53s14.143-3.623 15.434-8.53c.223-.311.382-.671.382-1.082V72.357c0-.358-.126-.674-.299-.96-1.065-5.092-7.488-8.897-15.517-8.897zm11.87 33.52c0 3.57-5.437 6.589-11.871 6.589-6.435 0-11.871-3.019-11.871-6.589 0-.221-.057-.427-.127-.625v-.33c2.856 2.234 7.132 3.634 11.997 3.634 4.866 0 9.141-1.4 11.997-3.634v.33a1.915 1.915 0 0 0-.125.625zm.127 6.757v.328c-.07.198-.127.403-.127.625 0 3.57-5.437 6.589-11.871 6.589-6.435 0-11.871-3.019-11.871-6.589 0-.221-.057-.427-.127-.625v-.328c2.856 2.233 7.132 3.633 11.997 3.633 4.867-.001 9.143-1.4 11.999-3.633zm-23.995 7.709c2.856 2.233 7.132 3.633 11.997 3.633 4.866 0 9.141-1.4 11.997-3.633v.328c-.07.198-.127.403-.127.625 0 3.57-5.437 6.589-11.871 6.589-6.435 0-11.871-3.019-11.871-6.589 0-.221-.057-.427-.127-.625v-.328zm23.995-22.802c-.07.198-.127.403-.127.625 0 3.573-5.437 6.591-11.871 6.591-6.435 0-11.871-3.019-11.871-6.591 0-.221-.057-.427-.127-.625v-.327c2.856 2.234 7.132 3.634 11.997 3.634 4.866 0 9.141-1.4 11.997-3.634v.327zm-23.995 30.512c2.856 2.233 7.132 3.633 11.997 3.633 4.866 0 9.141-1.4 11.997-3.633v.578c-.07.198-.127.403-.127.625 0 3.57-5.437 6.589-11.871 6.589-6.435 0-11.871-3.019-11.871-6.589 0-.221-.057-.427-.127-.625v-.578zM100.001 66.3c6.434 0 11.871 3.019 11.871 6.589 0 .221.057.427.127.625v6.46c-.07.198-.127.403-.127.625 0 3.573-5.437 6.591-11.871 6.591-6.435 0-11.871-3.019-11.871-6.591 0-.221-.057-.427-.127-.625v-.328c2.856 2.233 7.132 3.633 11.997 3.633 3.192 0 6.252-.614 8.853-1.774.962-.431 1.392-1.554.962-2.511a1.914 1.914 0 0 0-2.523-.958c-2.113.943-4.634 1.442-7.291 1.442-6.435 0-11.871-3.019-11.871-6.589s5.436-6.589 11.871-6.589zm0 67.4c-6.435 0-11.871-3.019-11.871-6.591 0-.221-.057-.427-.127-.625v-.328c2.856 2.233 7.132 3.633 11.997 3.633 4.866 0 9.141-1.4 11.997-3.633v.328c-.07.198-.127.403-.127.625.001 3.572-5.436 6.591-11.869 6.591z" fill="#FFFFFF" data-color="1"/><path d="M59.316 78.043c-8.797 0-15.688 4.565-15.688 10.392 0 .037.007.072.008.109-.08.21-.136.433-.136.671v23.131c0 .413.16.774.385 1.086 1.295 4.904 7.601 8.524 15.431 8.524 7.832 0 14.14-3.621 15.433-8.527.224-.311.383-.672.383-1.083V87.902c0-.358-.126-.674-.299-.96-1.064-5.093-7.488-8.899-15.517-8.899zm-11.997 24.856c2.856 2.234 7.132 3.634 11.997 3.634s9.141-1.4 11.997-3.633v.328c-.07.198-.127.403-.127.625 0 3.573-5.436 6.591-11.871 6.591-6.434 0-11.869-3.019-11.869-6.591 0-.224-.057-.431-.128-.631v-.323zm11.997-21.056c6.435 0 11.871 3.019 11.871 6.591 0 .221.057.427.127.625v6.46c-.07.198-.127.403-.127.625 0 3.57-5.436 6.589-11.871 6.589-6.434 0-11.869-3.019-11.869-6.589 0-.224-.057-.431-.128-.631v-.323c2.856 2.234 7.132 3.634 11.997 3.634 3.188 0 6.25-.614 8.854-1.774a1.898 1.898 0 0 0 .962-2.511 1.909 1.909 0 0 0-2.523-.958c-2.116.943-4.638 1.442-7.293 1.442-6.434 0-11.869-3.019-11.869-6.589 0-3.572 5.435-6.591 11.869-6.591zm0 36.311c-6.434 0-11.869-3.019-11.869-6.591 0-.224-.057-.431-.128-.631v-.322c2.856 2.235 7.132 3.635 11.997 3.635s9.141-1.4 11.997-3.634v.327c-.07.198-.127.403-.127.625.001 3.573-5.435 6.591-11.87 6.591z" fill="#FFFFFF" data-color="1"/><path d="M156.5 87.902c0-.358-.126-.674-.299-.96-1.064-5.093-7.487-8.9-15.517-8.9-8.798 0-15.689 4.565-15.689 10.392 0 .038.008.075.008.114-.079.209-.135.43-.135.666v23.131c0 .411.159.772.383 1.083 1.293 4.905 7.6 8.527 15.433 8.527s14.14-3.621 15.433-8.527c.223-.311.383-.672.383-1.083V87.902zM128.687 102.9c2.856 2.233 7.132 3.633 11.997 3.633s9.141-1.4 11.997-3.633v.328c-.07.198-.127.403-.127.625 0 3.573-5.437 6.591-11.871 6.591s-11.871-3.019-11.871-6.591c0-.221-.057-.427-.127-.625v-.328zm11.997-21.057c6.434 0 11.871 3.019 11.871 6.591 0 .221.057.427.127.625v6.46c-.07.198-.127.403-.127.625 0 3.57-5.437 6.589-11.871 6.589s-11.871-3.019-11.871-6.589c0-.221-.057-.427-.127-.625v-.328c2.856 2.233 7.132 3.633 11.997 3.633 3.192 0 6.252-.614 8.853-1.774.962-.431 1.392-1.554.962-2.511a1.913 1.913 0 0 0-2.523-.958c-2.113.943-4.634 1.442-7.291 1.442-6.434 0-11.871-3.019-11.871-6.589 0-3.572 5.437-6.591 11.871-6.591zm0 36.311c-6.434 0-11.871-3.019-11.871-6.591 0-.221-.057-.427-.127-.625v-.327c2.856 2.234 7.132 3.634 11.997 3.634s9.141-1.4 11.997-3.634v.327c-.07.198-.127.403-.127.625.002 3.573-5.435 6.591-11.869 6.591z" fill="#FFFFFF" data-color="1"/></g></svg>