<?xml version="1.0" standalone="no"?>
<!DOCTYPE svg PUBLIC "-//W3C//DTD SVG 20010904//EN"
 "http://www.w3.org/TR/2001/REC-SVG-20010904/DTD/svg10.dtd">
<svg version="1.0" xmlns="http://www.w3.org/2000/svg"
 width="372.000000pt" height="216.000000pt" viewBox="0 0 372.000000 216.000000"
 preserveAspectRatio="xMidYMid meet">

<g transform="translate(0.000000,216.000000) scale(0.100000,-0.100000)"
fill="#000000" stroke="none">
<path d="M2036 1839 l-138 -112 7 -138 c4 -77 5 -139 2 -139 -2 0 -43 18 -90
40 -47 22 -90 40 -95 40 -6 0 -50 -25 -99 -55 l-88 -56 -5 -112 c-3 -70 -9
-110 -15 -107 -6 3 -11 112 -12 289 l-2 285 -78 78 c-43 43 -82 78 -88 77 -5
0 -93 -35 -195 -78 l-185 -78 -3 -458 c-2 -415 -1 -457 14 -451 8 3 22 6 30 6
12 0 14 65 14 428 l0 427 133 48 c73 26 136 47 140 47 4 0 7 -207 7 -460 l0
-460 38 0 c20 0 67 3 105 7 l67 6 0 99 0 98 40 44 40 43 0 84 0 84 59 33 c33
17 62 32 65 32 3 0 6 -115 6 -255 l0 -256 155 3 156 3 0 235 0 235 -31 14 -30
15 0 131 0 130 72 54 c40 29 78 56 85 58 10 4 13 -50 13 -254 0 -143 3 -341 7
-440 l6 -181 71 -6 c39 -3 131 -8 204 -12 l132 -7 0 421 0 421 -72 42 c-40 23
-121 70 -179 105 -59 35 -111 64 -115 64 -5 0 -71 -50 -148 -111z m249 -51
c22 -10 25 -17 25 -64 l0 -54 -27 11 c-36 13 -43 25 -43 77 0 45 5 48 45 30z
m109 -48 c23 -8 26 -15 26 -55 0 -46 -8 -53 -44 -39 -12 4 -16 20 -16 55 0 27
2 49 4 49 3 0 16 -4 30 -10z m90 -40 c22 -8 26 -16 26 -48 0 -48 -5 -54 -36
-40 -20 9 -24 19 -24 55 0 48 -1 47 34 33z m-200 -60 c23 -8 26 -15 26 -60 0
-52 -1 -53 -37 -44 -20 6 -23 13 -23 60 0 30 2 54 4 54 3 0 16 -4 30 -10z
m114 -36 c19 -5 22 -13 22 -51 0 -42 -1 -44 -27 -41 -26 3 -28 7 -31 51 -3 49
-2 51 36 41z m93 -34 c23 -13 28 -80 5 -80 -35 0 -46 13 -46 51 0 41 8 46 41
29z m-197 -76 c11 -4 16 -19 16 -50 0 -42 -1 -44 -30 -44 -29 0 -30 1 -30 50
0 51 7 58 44 44z m104 -20 c18 -5 22 -13 22 -45 0 -37 -2 -39 -30 -39 -29 0
-30 2 -30 45 0 47 1 48 38 39z m96 -20 c10 -4 16 -18 16 -40 0 -31 -3 -34 -30
-34 -28 0 -30 2 -30 40 0 41 9 47 44 34z m-709 -46 c21 -9 25 -18 25 -55 0
-44 -8 -51 -44 -37 -12 4 -16 20 -16 55 0 54 -1 54 35 37z m103 -34 c18 -5 22
-13 22 -46 0 -37 -2 -39 -27 -36 -25 3 -28 7 -31 46 -3 44 -1 46 36 36z m86
-30 c17 -7 22 -59 7 -68 -21 -13 -41 7 -41 40 0 34 6 39 34 28z m336 -54 c0
-49 -1 -50 -30 -50 -29 0 -30 1 -30 50 0 49 1 50 30 50 29 0 30 -1 30 -50z
m108 3 c-3 -44 -5 -48 -28 -48 -23 0 -25 4 -28 48 -3 47 -3 47 28 47 31 0 31
0 28 -47z m92 -3 c0 -38 -2 -40 -30 -40 -28 0 -30 2 -30 40 0 38 2 40 30 40
28 0 30 -2 30 -40z m-702 -57 c3 -42 2 -43 -27 -43 -30 0 -31 1 -31 46 0 44 1
45 28 42 24 -3 27 -7 30 -45z m100 -16 c3 -37 2 -38 -25 -35 -25 3 -28 8 -31
41 -3 37 -2 38 25 35 25 -3 28 -8 31 -41z m66 20 c24 -18 18 -62 -9 -62 -16 0
-21 8 -23 38 -3 40 4 45 32 24z m-164 -142 c0 -43 -1 -45 -30 -45 -29 0 -30 2
-30 45 0 43 1 45 30 45 29 0 30 -2 30 -45z m100 -5 c0 -38 -2 -40 -30 -40 -28
0 -30 2 -30 40 0 38 2 40 30 40 28 0 30 -2 30 -40z m75 0 c0 -29 -4 -36 -22
-38 -21 -3 -23 1 -23 38 0 37 2 41 23 38 18 -2 22 -9 22 -38z"/>
<path d="M1183 1693 c-8 -3 -13 -26 -13 -63 l0 -58 28 7 c25 7 27 12 30 64 3
59 -4 67 -45 50z"/>
<path d="M590 1636 l-155 -53 -3 -421 c-2 -421 -2 -421 18 -414 20 8 21 15 23
397 l2 390 120 41 c66 23 123 40 128 37 4 -2 7 -180 7 -394 -1 -214 0 -390 2
-391 3 -2 145 21 171 28 16 5 17 31 17 364 l0 358 -69 56 c-39 31 -78 56 -88
55 -10 0 -88 -24 -173 -53z"/>
<path d="M1090 1670 c-23 -5 -25 -11 -28 -63 l-3 -58 28 7 c15 4 29 8 31 9 2
2 2 27 0 57 -3 52 -4 54 -28 48z"/>
<path d="M643 1513 c-20 -4 -23 -10 -23 -57 0 -51 1 -53 25 -48 23 4 25 9 25
58 0 30 -1 53 -2 53 -2 -1 -13 -4 -25 -6z"/>
<path d="M1193 1513 c-21 -4 -23 -10 -23 -64 0 -59 0 -59 30 -59 l30 0 0 65
c0 36 -3 64 -7 64 -5 -1 -18 -4 -30 -6z"/>
<path d="M1090 1491 c-22 -6 -25 -13 -28 -59 -3 -52 -3 -52 27 -52 l31 0 0 60
c0 33 -1 60 -2 59 -2 -1 -14 -4 -28 -8z"/>
<path d="M533 1483 c-14 -5 -19 -104 -5 -102 34 3 45 17 46 62 1 47 -6 55 -41
40z"/>
<path d="M627 1343 c-4 -3 -7 -28 -7 -55 0 -45 2 -48 25 -48 24 0 25 3 25 55
0 47 -3 55 -18 55 -10 0 -22 -3 -25 -7z"/>
<path d="M533 1323 c-8 -3 -13 -23 -13 -49 0 -42 1 -44 30 -44 29 0 30 1 30
50 0 51 -9 59 -47 43z"/>
<path d="M1088 1323 c-26 -4 -28 -8 -28 -54 0 -48 1 -49 30 -49 30 0 30 1 30
55 0 30 -1 54 -2 54 -2 -1 -15 -4 -30 -6z"/>
<path d="M1170 1275 c0 -54 0 -55 30 -55 30 0 30 1 30 55 0 54 0 55 -30 55
-30 0 -30 -1 -30 -55z"/>
<path d="M2725 1198 c-49 -57 -97 -113 -108 -125 -18 -20 -19 -26 -7 -48 7
-14 21 -25 31 -25 15 0 19 -10 21 -57 3 -50 6 -58 24 -61 20 -3 22 2 27 80 4
64 2 86 -9 94 -12 9 -2 26 51 95 35 46 69 84 74 84 6 0 49 -47 96 -105 l85
-105 0 -76 c0 -74 1 -77 25 -81 l25 -5 0 83 0 84 125 0 125 0 0 -134 c0 -113
2 -135 16 -140 40 -16 42 -11 42 132 1 128 2 137 21 142 17 4 7 22 -77 135
l-97 130 -201 3 -200 2 -89 -102z"/>
<path d="M620 1135 c0 -52 1 -55 25 -55 24 0 25 3 25 55 0 52 -1 55 -25 55
-24 0 -25 -3 -25 -55z"/>
<path d="M522 1133 c3 -44 5 -48 31 -51 26 -3 27 -2 27 47 0 50 -1 51 -31 51
-30 0 -30 -1 -27 -47z"/>
<path d="M1060 1085 c0 -54 0 -55 30 -55 30 0 30 1 30 55 0 54 0 55 -30 55
-30 0 -30 -1 -30 -55z"/>
<path d="M1170 1085 c0 -54 0 -55 30 -55 30 0 30 1 30 55 0 54 0 55 -30 55
-30 0 -30 -1 -30 -55z"/>
<path d="M522 968 c3 -49 5 -53 28 -53 23 0 25 3 25 50 0 47 -1 50 -28 53 -28
3 -28 3 -25 -50z"/>
<path d="M620 965 c0 -52 1 -55 25 -55 24 0 25 3 25 55 0 52 -1 55 -25 55 -24
0 -25 -3 -25 -55z"/>
<path d="M2810 965 l0 -55 35 0 35 0 0 55 0 55 -35 0 -35 0 0 -55z"/>
<path d="M3107 1004 c-4 -4 -7 -38 -7 -76 l0 -68 50 0 51 0 -3 73 -3 72 -40 3
c-23 2 -44 0 -48 -4z"/>
<path d="M1555 870 c-463 -22 -826 -76 -1058 -156 -157 -55 -217 -99 -217
-160 0 -150 507 -274 1280 -314 796 -41 1682 61 1933 222 119 76 92 154 -78
225 -196 82 -526 142 -950 173 -199 14 -709 20 -910 10z m-780 -204 c70 -70
24 -186 -72 -186 -65 0 -112 70 -93 140 13 49 42 70 98 70 32 0 49 -6 67 -24z
m725 -76 l0 -100 -25 0 c-24 0 -25 2 -25 75 l0 75 -35 0 -35 0 0 -75 c0 -73
-1 -75 -25 -75 l-25 0 0 100 0 100 85 0 85 0 0 -100z m850 80 c11 -11 20 -27
20 -35 0 -20 -40 -19 -55 1 -17 25 -63 11 -71 -21 -16 -62 28 -113 66 -75 11
11 29 20 40 20 30 0 25 -34 -7 -60 -22 -17 -37 -21 -72 -17 -59 7 -80 34 -81
105 0 43 5 57 25 77 32 33 105 35 135 5z m-1470 -58 l5 -24 22 26 c21 24 63
36 63 18 0 -5 -11 -19 -25 -32 -14 -13 -25 -28 -25 -33 0 -5 11 -22 25 -39 32
-38 31 -45 -3 -40 -17 2 -35 14 -45 30 l-16 27 -1 -27 c0 -23 -4 -28 -25 -28
-24 0 -25 2 -25 68 0 38 3 72 7 76 13 13 37 1 43 -22z m150 -2 c0 -25 4 -30
24 -30 19 0 25 6 28 28 2 19 9 27 23 27 18 0 20 -8 23 -72 3 -72 2 -73 -22
-73 -19 0 -25 6 -28 28 -4 39 -42 38 -46 -1 -3 -22 -8 -28 -24 -25 -18 3 -20
10 -20 68 0 85 -1 80 22 80 16 0 20 -7 20 -30z m250 10 c16 -16 20 -32 19 -78
l-2 -57 -56 1 c-77 1 -79 1 -86 25 -8 25 19 59 49 59 33 0 53 17 39 31 -10 10
-16 9 -31 -4 -21 -20 -52 -23 -52 -5 0 45 84 64 120 28z m398 -57 c3 -72 3
-73 -23 -73 -24 0 -25 3 -25 55 0 42 -3 55 -15 55 -11 0 -15 -11 -15 -40 0
-42 -26 -80 -55 -80 -23 0 -31 31 -12 42 12 6 17 23 17 57 0 26 3 51 7 55 4 4
32 6 63 4 l55 -3 3 -72z m156 61 c11 -10 16 -34 16 -70 0 -30 1 -57 3 -60 1
-3 -26 -8 -60 -10 -55 -4 -63 -2 -77 18 -21 30 -1 61 45 68 20 3 34 11 34 19
0 20 -24 26 -31 7 -7 -17 -54 -22 -54 -6 0 41 92 67 124 34z m164 0 c12 -8 22
-22 22 -30 0 -19 -29 -18 -51 1 -15 14 -18 14 -33 0 -17 -17 -20 -34 -10 -59
8 -20 43 -21 50 -1 7 17 40 20 49 5 3 -5 -5 -21 -19 -35 -33 -33 -79 -33 -111
0 -69 68 23 175 103 119z m177 -4 c0 -8 -10 -16 -22 -18 -21 -3 -23 -9 -23
-58 0 -51 -1 -54 -25 -54 -24 0 -25 3 -25 55 0 52 -1 55 -25 55 -24 0 -33 18
-18 34 4 4 37 6 73 4 50 -2 65 -6 65 -18z m345 0 c11 -11 20 -24 20 -29 0 -5
3 -16 6 -25 5 -13 -3 -16 -51 -16 -41 0 -55 -3 -52 -12 3 -9 20 -12 51 -10 50
3 59 -8 24 -32 -55 -39 -128 -2 -128 64 0 30 6 43 26 59 34 27 78 27 104 1z
m178 4 c17 -11 22 -24 22 -59 0 -57 -28 -89 -71 -83 -25 4 -29 1 -29 -19 0
-18 -5 -23 -25 -23 -25 0 -25 0 -25 93 0 52 2 96 5 99 12 11 102 6 123 -8z
m157 6 c21 -8 26 -16 24 -38 -2 -15 0 -33 5 -40 4 -7 5 -24 2 -38 -6 -22 -11
-24 -71 -24 l-65 0 0 68 c0 38 3 72 7 75 10 10 68 8 98 -3z m105 -35 l5 -39
28 43 c43 64 61 54 65 -37 l3 -72 -27 0 c-25 0 -26 2 -21 40 3 22 4 40 2 40
-2 0 -14 -18 -26 -40 -18 -32 -28 -40 -51 -40 -28 0 -28 0 -28 68 0 72 4 85
30 80 9 -2 17 -18 20 -43z m260 18 l22 -28 -22 -3 c-12 -2 -29 3 -39 12 -28
25 -48 0 -43 -56 2 -22 35 -24 51 -4 15 17 47 13 43 -5 -2 -8 -12 -22 -24 -31
-61 -52 -149 17 -118 92 24 58 93 70 130 23z"/>
<path d="M670 631 c-34 -64 33 -144 72 -87 12 17 9 81 -4 94 -18 18 -56 14
-68 -7z"/>
<path d="M1213 543 c-7 -2 -13 -9 -13 -15 0 -14 43 -6 48 10 4 12 -12 15 -35
5z"/>
<path d="M1773 543 c-20 -8 -15 -23 7 -23 11 0 20 7 20 15 0 15 -6 17 -27 8z"/>
<path d="M2450 595 c-11 -13 -8 -15 20 -15 28 0 31 2 20 15 -7 8 -16 15 -20
15 -4 0 -13 -7 -20 -15z"/>
<path d="M2631 601 c-7 -5 -11 -22 -9 -42 2 -26 8 -34 23 -34 15 0 21 8 23 31
3 34 -16 58 -37 45z"/>
<path d="M2800 590 c0 -5 7 -10 15 -10 8 0 15 5 15 10 0 6 -7 10 -15 10 -8 0
-15 -4 -15 -10z"/>
<path d="M2800 534 c0 -8 9 -14 21 -14 11 0 19 5 17 12 -6 17 -38 19 -38 2z"/>
</g>
</svg>
